# xmcd CD database file
#
# Track frame offsets:
#	150
#	12246
#	24566
#	35372
#	50752
#	64047
#	77167
#	90499
#	103143
#	117826
#
# Disc length: 1738 seconds
#
# Revision: 0
# Processed by: cddbd v1.4PL0 Copyright (c) Steve Scherf et al.
# Submitted via: Feurio! 1.65 - http://www.feurio.com
#
DISCID=7906c80a
DTITLE=Sam and Dave - Percy Sledge - Back To Back
DYEAR=1900
DGENRE=
TTITLE0=Sam and Dave  - Hold On I'm Comin'
TTITLE1=Sam and Dave - I Thank You
TTITLE2=Sam and Dave - Soul Sister, Brown Sugar
TTITLE3=Sam and Dave - When Something Is Wrong With My Baby
TTITLE4=Sam and Dave - You Don't Know What You Mean To Me
TTITLE5=Percy Sledge - When A Man Loves A Woman
TTITLE6=Percy Sledge - Take Time To Know Her
TTITLE7=Percy Sledge - It Tears Me Up
TTITLE8=Percy Sledge - Warm and Tender Love
TTITLE9=Percy Sledge - Cover Me
EXTD=New stereo recordings\r\nK-tel  4346-2
EXTT0=
EXTT1=
EXTT2=
EXTT3=
EXTT4=
EXTT5=
EXTT6=
EXTT7=
EXTT8=
EXTT9=
PLAYORDER=
